REM MD5 06b52470cb84809c170fe02b08136f75
FILE "Big Challenge Golf - Tokyo Yomiuri Country Club-hen (Japan).bin" BINARY
  TRACK 01 MODE2/2352
    INDEX 01 00:00:00
  TRACK 02 AUDIO
    INDEX 00 07:18:03
    INDEX 01 07:20:03
  TRACK 03 AUDIO
    INDEX 00 08:46:26
    INDEX 01 08:48:26
  TRACK 04 AUDIO
    INDEX 00 10:11:49
    INDEX 01 10:13:49
  TRACK 05 AUDIO
    INDEX 00 11:39:72
    INDEX 01 11:41:72
  TRACK 06 AUDIO
    INDEX 00 12:08:09
    INDEX 01 12:10:09
REM LEADOUT 15:16:09
